HIERARCHY
ROOT Hips
{
	OFFSET -3.958830 18.904000 13.208200
	CHANNELS 6 Xposition Yposition Zposition Zrotation Yrotation Xrotation 
	JOINT LHipJoint
	{
		OFFSET 0.000000 0.000000 0.000000
		CHANNELS 3 Zrotation Yrotation Xrotation
		JOINT LeftUpLeg
		{
			OFFSET 1.800000 -1.400000 0.085000
			CHANNELS 3 Zrotation Yrotation Xrotation
			JOINT LeftLeg
			{
				OFFSET 2.215000 -6.000000 0.000000
				CHANNELS 3 Zrotation Yrotation Xrotation
				JOINT LeftFoot
				{
					OFFSET 2.500000 -6.900000 0.000000
					CHANNELS 3 Zrotation Yrotation Xrotation
					JOINT LeftToeBase
					{
						OFFSET 0.200000 -0.500000 1.950000
						CHANNELS 3 Zrotation Yrotation Xrotation
						End Site
						{
							OFFSET 0.000000 0.000000 0.000000
						}
					}
				}
			}
		}
	}
	JOINT RHipJoint
	{
		OFFSET 0.000000 0.000000 0.000000
		CHANNELS 3 Zrotation Yrotation Xrotation
		JOINT RightUpLeg
		{
			OFFSET -1.800000 -1.400000 0.085000
			CHANNELS 3 Zrotation Yrotation Xrotation
			JOINT RightLeg
			{
				OFFSET -2.215000 -6.000000 0.000000
				CHANNELS 3 Zrotation Yrotation Xrotation
				JOINT RightFoot
				{
					OFFSET -2.500000 -6.900000 0.000000
					CHANNELS 3 Zrotation Yrotation Xrotation
					JOINT RightToeBase
					{
						OFFSET -0.200000 -0.500000 1.950000
						CHANNELS 3 Zrotation Yrotation Xrotation
						End Site
						{
							OFFSET 0.000000 0.000000 0.000000
						}
					}
				}
			}
		}
	}
	JOINT LowerBack
	{
		OFFSET 0.000000 0.000000 0.000000
		CHANNELS 3 Zrotation Yrotation Xrotation
		JOINT Spine
		{
			OFFSET -0.087000 1.940000 -0.288900
			CHANNELS 3 Zrotation Yrotation Xrotation
			JOINT Spine1
			{
				OFFSET 0.000000 1.950000 0.060000
				CHANNELS 3 Zrotation Yrotation Xrotation
				JOINT Neck
				{
					OFFSET 0.000000 0.000000 0.000000
					CHANNELS 3 Zrotation Yrotation Xrotation
					JOINT Neck1
					{
						OFFSET 0.000000 1.600000 0.340000
						CHANNELS 3 Zrotation Yrotation Xrotation
						JOINT Head
						{
							OFFSET 0.000000 1.667000 -0.240000
							CHANNELS 3 Zrotation Yrotation Xrotation
							End Site
							{
								OFFSET 0.000000 0.000000 0.000000
							}
						}
					}
				}
				JOINT LeftShoulder
				{
					OFFSET 0.000000 0.000000 0.000000
					CHANNELS 3 Zrotation Yrotation Xrotation
					JOINT LeftArm
					{
						OFFSET 2.700000 1.550000 -0.730000
						CHANNELS 3 Zrotation Yrotation Xrotation
						JOINT LeftForeArm
						{
							OFFSET 5.450000 0.000000 0.000000
							CHANNELS 3 Zrotation Yrotation Xrotation
							JOINT LeftHand
							{
								OFFSET 3.450000 0.000000 0.000000
								CHANNELS 3 Zrotation Yrotation Xrotation
								JOINT LeftHandIndex1
								{
									OFFSET 0.750000 0.000000 0.000000
									CHANNELS 3 Zrotation Yrotation Xrotation
									End Site
									{
										OFFSET 0.000000 0.000000 0.000000
									}
								}
							}
						}
					}
				}
				JOINT RightShoulder
				{
					OFFSET 0.000000 0.000000 0.000000
					CHANNELS 3 Zrotation Yrotation Xrotation
					JOINT RightArm
					{
						OFFSET -2.700000 1.550000 -0.730000
						CHANNELS 3 Zrotation Yrotation Xrotation
						JOINT RightForeArm
						{
							OFFSET -5.450000 0.000000 0.000000
							CHANNELS 3 Zrotation Yrotation Xrotation
							JOINT RightHand
							{
								OFFSET -3.450000 0.000000 0.000000
								CHANNELS 3 Zrotation Yrotation Xrotation
								JOINT RightHandIndex1
								{
									OFFSET -0.750000 0.000000 0.000000
									CHANNELS 3 Zrotation Yrotation Xrotation
									End Site
									{
										OFFSET 0.000000 0.000000 0.000000
									}
								}
							}
						}
					}
				}
			}
		}
	}
}
MOTION
Frames: 6
Frame Time: 0.016667
2.221700 17.905960 -2.425790 -1.456610 -10.593604 7.002307 -15.090639 13.460643 4.007433 -4.511064 -1.725137 -12.144437 -6.610086 2.834087 -3.956507 -0.256255 2.802540 3.679207 0.202910 0.101940 0.158350 18.222323 -10.516265 3.387394 4.416733 -1.732468 0.193511 4.544170 -4.571408 8.331795 -0.589130 -3.584195 3.208909 -0.008730 0.028740 0.095390 -3.404769 -2.815027 -8.881186 12.882341 2.220142 6.207190 -5.206257 4.228660 -16.235535 3.809988 -3.593425 -14.845312 -14.794735 7.788248 61.133298 -2.415780 3.179270 -3.366460 -17.353071 -8.247584 1.963107 8.920162 -1.923089 -0.341465 6.170366 2.649246 -0.536845 -3.938672 2.393102 0.518450 -0.068170 0.221730 0.102850 10.879377 13.729691 10.142053 -3.276134 -0.585832 -1.131638 -6.077355 -9.657843 0.764703 2.916421 -0.882627 -0.097320 0.215190 -0.010610 -0.105470 
2.282590 17.925370 -2.490650 -1.391955 -12.130951 7.167665 -15.045736 13.426288 3.993532 -3.722177 -1.746490 -12.448746 -6.859054 2.779053 -4.620337 -0.245629 2.819941 3.675915 0.192700 0.084910 0.160710 18.278695 -10.496301 3.341029 3.789475 -1.677686 -0.122375 4.946035 -4.608623 7.853874 -0.589357 -3.538173 3.229858 -0.028160 0.016590 0.083610 -3.538778 -2.831189 -8.798074 13.581133 1.884653 6.598951 -6.075273 4.019920 -14.637753 3.667331 -4.120533 -15.182980 -16.106440 8.535836 59.291969 -2.066610 3.745530 -4.428460 -17.840508 -9.149492 2.525330 10.224124 0.205601 -0.345104 6.579172 1.532507 -0.495571 -3.878185 2.399154 0.547210 -0.091310 0.233270 0.097190 11.579322 14.701679 10.502634 -4.458987 -1.150667 -1.167769 -5.392522 -7.573781 0.567028 2.892728 -0.836505 -0.105660 0.219930 -0.010430 -0.113540 
2.333060 17.926340 -2.548740 -0.669056 -13.502157 7.221196 -15.044228 13.367594 3.992497 -3.265075 -1.819178 -12.740668 -7.400815 2.773668 -4.846231 -0.200491 2.828063 3.670327 0.191670 0.088030 0.151080 18.279958 -10.536425 3.278631 2.298784 -1.526488 -0.443049 5.650735 -4.678594 7.247465 -0.582804 -3.558472 3.219920 -0.040110 0.012870 0.100670 -3.525082 -2.718745 -8.744562 12.549339 1.881336 6.765926 -6.019542 3.796429 -13.406089 3.562352 -4.444031 -15.302496 -16.630232 8.839661 57.175010 -1.949220 4.281150 -4.235240 -17.750417 -9.855941 2.801846 11.395455 -0.126083 -0.475959 6.170686 3.088444 -0.535019 -3.889637 2.445105 0.522250 -0.088510 0.232920 0.103250 11.841396 15.349135 10.752308 -5.468208 -1.747732 -1.081598 -4.948989 -5.172282 0.384009 2.870134 -0.858773 -0.080110 0.182830 -0.021420 -0.099960 
2.389300 17.925330 -2.602390 -0.193019 -14.101988 7.335152 -15.029258 13.358207 3.966364 -2.588485 -1.882699 -13.191364 -7.721285 2.817228 -4.603023 -0.192246 2.846138 3.659963 0.159380 0.052060 0.126870 18.290544 -10.539955 3.241463 0.927461 -1.384426 -0.689255 6.739032 -4.821737 6.610626 -0.574171 -3.600056 3.199103 -0.064600 0.020460 0.112540 -3.559558 -2.728004 -8.691792 12.296672 1.454681 6.921255 -6.604326 3.311897 -12.466942 3.626581 -4.677677 -15.460685 -16.898948 9.226688 55.552058 -2.302560 5.086510 -3.939920 -17.823352 -10.393462 3.137647 12.041638 0.795939 -0.509858 6.937497 2.376295 -0.481570 -3.886185 2.476046 0.513460 -0.079090 0.222960 0.092160 11.775390 15.883978 10.904483 -6.085873 -1.667814 -1.004487 -3.487753 -5.152744 0.277281 2.878400 -0.851934 -0.079040 0.160550 -0.001480 -0.099160 
2.435870 17.921440 -2.641320 -0.021107 -15.008951 7.523392 -15.021431 13.390267 3.943401 -1.377666 -1.867896 -13.471229 -8.306569 2.927473 -4.264644 -0.191948 2.909131 3.634468 0.148310 0.034020 0.135310 18.284445 -10.533313 3.214490 -0.073649 -1.230591 -1.086890 7.621511 -4.946144 6.391352 -0.571405 -3.596315 3.203266 -0.077260 0.007760 0.106630 -3.550393 -2.799877 -8.662726 12.214184 1.219959 7.021603 -6.960322 3.052008 -12.074984 3.860998 -4.835311 -15.736386 -17.316095 9.749011 55.044033 -2.782000 5.947690 -4.454480 -17.598250 -10.678992 3.409129 11.851473 0.923299 -0.554738 7.509608 2.609413 -0.442344 -3.881860 2.455933 0.535990 -0.087860 0.231450 0.081550 11.168051 16.271650 11.060675 -6.356244 -1.772039 -0.885329 -1.851624 -3.423713 0.174825 2.850284 -0.817323 -0.090510 0.160900 0.001330 -0.113840 
2.478260 17.932140 -2.667890 -0.069486 -16.614765 8.012711 -14.984865 13.461360 3.930388 -0.141856 -1.803907 -13.524051 -8.488176 3.004711 -4.103269 -0.190174 2.985357 3.615521 0.145280 0.025350 0.130400 18.300009 -10.538581 3.166664 -0.856619 -0.979259 -1.964372 8.280678 -5.080815 7.003157 -0.555030 -3.546313 3.226396 -0.080680 0.026420 0.095810 -3.609192 -2.905760 -8.590591 12.853320 0.891195 6.931341 -7.463557 2.814255 -12.967096 3.722278 -5.796507 -15.855305 -19.708644 11.527725 54.229119 -1.652550 6.533420 -4.956530 -17.588683 -10.405043 3.440896 11.697675 1.757025 -0.484130 8.093914 1.830366 -0.418226 -3.851901 2.449724 0.556610 -0.095850 0.229980 0.085180 11.551798 16.668282 10.936284 -7.112712 -1.060193 -0.933097 -0.839318 -3.486992 0.119205 2.846046 -0.784580 -0.106420 0.188860 0.009990 -0.114560 
